<?xml version="1.0" encoding="UTF-8" standalone="no"?>
<!-- Created with Inkscape (http://www.inkscape.org/) -->

<svg
   xmlns:dc="http://purl.org/dc/elements/1.1/"
   xmlns:cc="http://creativecommons.org/ns#"
   xmlns:rdf="http://www.w3.org/1999/02/22-rdf-syntax-ns#"
   xmlns:svg="http://www.w3.org/2000/svg"
   xmlns="http://www.w3.org/2000/svg"
   xmlns:sodipodi="http://sodipodi.sourceforge.net/DTD/sodipodi-0.dtd"
   xmlns:inkscape="http://www.inkscape.org/namespaces/inkscape"
   width="960"
   height="540"
   id="svg3818"
   version="1.1"
   inkscape:version="0.48.2 r9819"
   sodipodi:docname="baselove.svg">
  <defs
     id="defs3820" />
  <sodipodi:namedview
     id="base"
     pagecolor="#ffffff"
     bordercolor="#666666"
     borderopacity="1.0"
     inkscape:pageopacity="0.0"
     inkscape:pageshadow="2"
     inkscape:zoom="0.98994949"
     inkscape:cx="443.30245"
     inkscape:cy="253.609"
     inkscape:document-units="px"
     inkscape:current-layer="layer1"
     showgrid="false"
     inkscape:window-width="1291"
     inkscape:window-height="1022"
     inkscape:window-x="223"
     inkscape:window-y="66"
     inkscape:window-maximized="0" />
  <metadata
     id="metadata3823">
    <rdf:RDF>
      <cc:Work
         rdf:about="">
        <dc:format>image/svg+xml</dc:format>
        <dc:type
           rdf:resource="http://purl.org/dc/dcmitype/StillImage" />
        <dc:title></dc:title>
      </cc:Work>
    </rdf:RDF>
  </metadata>
  <g
     inkscape:label="Layer 1"
     inkscape:groupmode="layer"
     id="layer1"
     transform="translate(0,-512.36218)">
    <g
       id="circles"
       transform="matrix(0.43044121,0,0,0.43044121,344.10356,648.52354)"
       style="fill:none;stroke:#3c94ea;stroke-opacity:1"
       inkscape:label="#g3781">
      <path
         transform="matrix(0.88582677,0,0,0.88582677,-134.7919,-191.01827)"
         d="m 871.42859,566.64789 c 0,200.40047 -162.45668,362.85715 -362.85715,362.85715 -200.40047,0 -362.85715,-162.45668 -362.85715,-362.85715 0,-200.40047 162.45668,-362.85715 362.85715,-362.85715 200.40047,0 362.85715,162.45668 362.85715,362.85715 z"
         sodipodi:ry="362.85715"
         sodipodi:rx="362.85715"
         sodipodi:cy="566.64789"
         sodipodi:cx="508.57144"
         id="path3007"
         style="fill:none;stroke:#3c94ea;stroke-width:4.51555538;stroke-miterlimit:4;stroke-opacity:1;stroke-dasharray:none"
         sodipodi:type="arc" />
      <path
         sodipodi:type="arc"
         style="fill:none;stroke:#3c94ea;stroke-width:12.29827023;stroke-miterlimit:4;stroke-opacity:1;stroke-dasharray:none"
         id="path3777"
         sodipodi:cx="508.57144"
         sodipodi:cy="566.64789"
         sodipodi:rx="362.85715"
         sodipodi:ry="362.85715"
         d="m 871.42859,566.64789 c 0,200.40047 -162.45668,362.85715 -362.85715,362.85715 -200.40047,0 -362.85715,-162.45668 -362.85715,-362.85715 0,-200.40047 162.45668,-362.85715 362.85715,-362.85715 200.40047,0 362.85715,162.45668 362.85715,362.85715 z"
         transform="matrix(0.96400742,0,0,0.98762947,-174.55235,-248.70456)" />
      <path
         transform="matrix(1.2512542,0,0,1.281915,-320.63787,-415.46082)"
         d="m 871.42859,566.64789 c 0,200.40047 -162.45668,362.85715 -362.85715,362.85715 -200.40047,0 -362.85715,-162.45668 -362.85715,-362.85715 0,-200.40047 162.45668,-362.85715 362.85715,-362.85715 200.40047,0 362.85715,162.45668 362.85715,362.85715 z"
         sodipodi:ry="362.85715"
         sodipodi:rx="362.85715"
         sodipodi:cy="566.64789"
         sodipodi:cx="508.57144"
         id="path3779"
         style="fill:none;stroke:#3c94ea;stroke-width:19.7395668;stroke-miterlimit:4;stroke-opacity:1;stroke-dasharray:none"
         sodipodi:type="arc" />
    </g>
    <g
       id="hearts"
       inkscape:label="#g3923">
      <path
         sodipodi:nodetypes="scscs"
         inkscape:connector-curvature="0"
         id="rect3786"
         d="m 465.9982,593.29756 c 5.49411,-6.36701 14.19793,2.99225 14.19793,2.99225 0,0 10.47001,-8.96624 14.19785,-2.99225 5.60236,8.97791 -14.19785,28.39578 -14.19785,28.39578 0,0 -21.11146,-20.3838 -14.19793,-28.39578 z"
         style="fill:#3c94ea;fill-opacity:1;stroke:#3c94ea;stroke-width:0.4304412;stroke-opacity:1" />
      <path
         style="fill:#3c94ea;fill-opacity:1;stroke:#3c94ea;stroke-width:0.4304412;stroke-opacity:1"
         d="m 465.9982,945.22294 c 5.49411,-6.367 14.19793,2.9922 14.19793,2.9922 0,0 10.47001,-8.9662 14.19785,-2.9922 5.60236,8.9779 -14.19785,28.3958 -14.19785,28.3958 0,0 -21.11146,-20.3838 -14.19793,-28.3958 z"
         id="path3793"
         inkscape:connector-curvature="0"
         sodipodi:nodetypes="scscs" />
      <path
         sodipodi:nodetypes="scscs"
         inkscape:connector-curvature="0"
         id="path3795"
         d="m 636.254,769.27374 c 5.4941,-6.367 14.19793,2.9923 14.19793,2.9923 0,0 10.47001,-8.9663 14.19784,-2.9923 5.60237,8.9779 -14.19784,28.3958 -14.19784,28.3958 0,0 -21.11147,-20.3838 -14.19793,-28.3958 z"
         style="fill:#3c94ea;fill-opacity:1;stroke:#3c94ea;stroke-width:0.4304412;stroke-opacity:1" />
      <path
         style="fill:#3c94ea;fill-opacity:1;stroke:#3c94ea;stroke-width:0.4304412;stroke-opacity:1"
         d="m 294.79129,769.27374 c 5.4941,-6.367 14.19793,2.9923 14.19793,2.9923 0,0 10.46999,-8.9663 14.19782,-2.9923 5.60237,8.9779 -14.19782,28.3958 -14.19782,28.3958 0,0 -21.11147,-20.3838 -14.19793,-28.3958 z"
         id="path3797"
         inkscape:connector-curvature="0"
         sodipodi:nodetypes="scscs" />
    </g>
  </g>
</svg>
