<?xml version="1.0" encoding="UTF-8" standalone="no"?>
<!-- Created with Inkscape (http://www.inkscape.org/) -->

<svg
   xmlns:dc="http://purl.org/dc/elements/1.1/"
   xmlns:cc="http://creativecommons.org/ns#"
   xmlns:rdf="http://www.w3.org/1999/02/22-rdf-syntax-ns#"
   xmlns:svg="http://www.w3.org/2000/svg"
   xmlns="http://www.w3.org/2000/svg"
   xmlns:sodipodi="http://sodipodi.sourceforge.net/DTD/sodipodi-0.dtd"
   xmlns:inkscape="http://www.inkscape.org/namespaces/inkscape"
   width="960"
   height="540"
   id="svg3818"
   version="1.1"
   inkscape:version="0.48.2 r9819"
   sodipodi:docname="baselove.svg">
  <defs
     id="defs3820" />
  <sodipodi:namedview
     id="base"
     pagecolor="#ffffff"
     bordercolor="#666666"
     borderopacity="1.0"
     inkscape:pageopacity="0.0"
     inkscape:pageshadow="2"
     inkscape:zoom="0.98994949"
     inkscape:cx="200.86584"
     inkscape:cy="253.609"
     inkscape:document-units="px"
     inkscape:current-layer="circles"
     showgrid="false"
     inkscape:window-width="1291"
     inkscape:window-height="1006"
     inkscape:window-x="223"
     inkscape:window-y="66"
     inkscape:window-maximized="0" />
  <metadata
     id="metadata3823">
    <rdf:RDF>
      <cc:Work
         rdf:about="">
        <dc:format>image/svg+xml</dc:format>
        <dc:type
           rdf:resource="http://purl.org/dc/dcmitype/StillImage" />
        <dc:title />
      </cc:Work>
    </rdf:RDF>
  </metadata>
  <g
     inkscape:label="Layer 1"
     inkscape:groupmode="layer"
     id="layer1"
     transform="translate(0,-512.36218)">
    <g
       id="circles"
       transform="matrix(0.43044121,0,0,0.43044121,344.10356,648.52354)"
       style="fill:none;stroke:#3c94ea;stroke-opacity:1"
       inkscape:label="circles">
      <path
         style="font-size:medium;font-style:normal;font-variant:normal;font-weight:normal;font-stretch:normal;text-indent:0;text-align:start;text-decoration:none;line-height:normal;letter-spacing:normal;word-spacing:normal;text-transform:none;direction:ltr;block-progression:tb;writing-mode:lr-tb;text-anchor:start;baseline-shift:baseline;color:#000000;fill:#3c94ea;fill-opacity:1;stroke:none;stroke-width:4.51555538;marker:none;visibility:visible;display:inline;overflow:visible;enable-background:accumulate;font-family:Sans;-inkscape-font-specification:Sans"
         d="m 315.70638,-12.496494 c -178.60098,0 -323.4098206,144.836524 -323.4098206,323.437504 0,178.60097 144.8088406,323.40981 323.4098206,323.40981 178.60097,0 323.4375,-144.80884 323.4375,-323.40981 0,-178.60098 -144.83653,-323.437504 -323.4375,-323.437504 z m 0,4.0139028 c 176.43922,0 319.42359,142.9843712 319.42359,319.4236012 0,176.43922 -142.98437,319.42359 -319.42359,319.42359 -176.43923,0 -319.4236001,-142.98437 -319.4236001,-319.42359 0,-176.43923 142.9843701,-319.4236012 319.4236001,-319.4236012 z"
         id="path3007"
         inkscape:connector-curvature="0" />
      <path
         style="font-size:medium;font-style:normal;font-variant:normal;font-weight:normal;font-stretch:normal;text-indent:0;text-align:start;text-decoration:none;line-height:normal;letter-spacing:normal;word-spacing:normal;text-transform:none;direction:ltr;block-progression:tb;writing-mode:lr-tb;text-anchor:start;baseline-shift:baseline;color:#000000;fill:#3c94ea;fill-opacity:1;stroke:none;stroke-width:12.29827023;marker:none;visibility:visible;display:inline;overflow:visible;enable-background:accumulate;font-family:Sans;-inkscape-font-specification:Sans"
         d="m 315.70567,-53.493423 c -196.39116,0 -355.718734,163.231733 -355.718734,364.435273 0,201.20354 159.327574,364.43528 355.718734,364.43528 196.39117,0 355.71874,-163.23174 355.71874,-364.43528 0,-201.20354 -159.32757,-364.435273 -355.71874,-364.435273 z m 0,12.129325 c 189.98392,0 343.87953,157.666668 343.87953,352.305948 0,194.63928 -153.89561,352.27509 -343.87953,352.27509 -189.98391,0 -343.849393,-157.63581 -343.849393,-352.27509 0,-194.63928 153.865483,-352.305948 343.849393,-352.305948 z"
         id="path3777"
         inkscape:connector-curvature="0" />
      <path
         style="font-size:medium;font-style:normal;font-variant:normal;font-weight:normal;font-stretch:normal;text-indent:0;text-align:start;text-decoration:none;line-height:normal;letter-spacing:normal;word-spacing:normal;text-transform:none;direction:ltr;block-progression:tb;writing-mode:lr-tb;text-anchor:start;baseline-shift:baseline;color:#000000;fill:#3c94ea;fill-opacity:1;stroke:none;stroke-width:19.7395668;marker:none;visibility:visible;display:inline;overflow:visible;enable-background:accumulate;font-family:Sans;-inkscape-font-specification:Sans"
         d="m 315.70309,-166.88949 c -257.426153,0 -466.3659,214.099675 -466.3659,477.83382 0,263.73414 208.939747,477.79375 466.3659,477.79375 257.42616,0 466.40501,-214.05961 466.40501,-477.79375 0,-263.734145 -208.97885,-477.83382 -466.40501,-477.83382 z m 0,25.31782 c 244.07771,0 441.69274,202.457401 441.69274,452.516 0,250.05859 -197.61503,452.47593 -441.69274,452.47593 -244.077698,0 -441.65363,-202.41734 -441.65363,-452.47593 0,-250.058599 197.575932,-452.516 441.65363,-452.516 z"
         id="path3779"
         inkscape:connector-curvature="0" />
    </g>
    <g
       id="hearts"
       inkscape:label="#g3923">
      <path
         sodipodi:nodetypes="scscs"
         inkscape:connector-curvature="0"
         id="rect3786"
         d="m 465.9982,593.29756 c 5.49411,-6.36701 14.19793,2.99225 14.19793,2.99225 0,0 10.47001,-8.96624 14.19785,-2.99225 5.60236,8.97791 -14.19785,28.39578 -14.19785,28.39578 0,0 -21.11146,-20.3838 -14.19793,-28.39578 z"
         style="fill:#3c94ea;fill-opacity:1;stroke:#3c94ea;stroke-width:0.4304412;stroke-opacity:1" />
      <path
         style="fill:#3c94ea;fill-opacity:1;stroke:#3c94ea;stroke-width:0.4304412;stroke-opacity:1"
         d="m 465.9982,945.22294 c 5.49411,-6.367 14.19793,2.9922 14.19793,2.9922 0,0 10.47001,-8.9662 14.19785,-2.9922 5.60236,8.9779 -14.19785,28.3958 -14.19785,28.3958 0,0 -21.11146,-20.3838 -14.19793,-28.3958 z"
         id="path3793"
         inkscape:connector-curvature="0"
         sodipodi:nodetypes="scscs" />
      <path
         sodipodi:nodetypes="scscs"
         inkscape:connector-curvature="0"
         id="path3795"
         d="m 636.254,769.27374 c 5.4941,-6.367 14.19793,2.9923 14.19793,2.9923 0,0 10.47001,-8.9663 14.19784,-2.9923 5.60237,8.9779 -14.19784,28.3958 -14.19784,28.3958 0,0 -21.11147,-20.3838 -14.19793,-28.3958 z"
         style="fill:#3c94ea;fill-opacity:1;stroke:#3c94ea;stroke-width:0.4304412;stroke-opacity:1" />
      <path
         style="fill:#3c94ea;fill-opacity:1;stroke:#3c94ea;stroke-width:0.4304412;stroke-opacity:1"
         d="m 294.79129,769.27374 c 5.4941,-6.367 14.19793,2.9923 14.19793,2.9923 0,0 10.46999,-8.9663 14.19782,-2.9923 5.60237,8.9779 -14.19782,28.3958 -14.19782,28.3958 0,0 -21.11147,-20.3838 -14.19793,-28.3958 z"
         id="path3797"
         inkscape:connector-curvature="0"
         sodipodi:nodetypes="scscs" />
    </g>
  </g>
</svg>
